<?xml version="1.0" encoding="UTF-8"?>
<svg version="1.1" xmlns="http://www.w3.org/2000/svg" width="179" height="179">
<path d="M0 0 C17.84380692 14.82365948 31.13620792 34.58054477 34 58 C35.98899462 84.86608312 31.41734146 108.38781021 13.9453125 129.48046875 C11.69330618 132.05586006 9.37873823 134.54143834 7 137 C6.33484375 137.6909375 5.6696875 138.381875 4.984375 139.09375 C-13.36027421 156.73822176 -37.71228089 161.69087444 -62.2734375 161.3046875 C-86.20717888 160.49733241 -106.20581122 148.73355686 -122.90625 132.1015625 C-140.65804366 112.97803933 -145.89545946 89.80180507 -145.33984375 64.5859375 C-144.3595156 40.10215471 -132.00702461 18.85831398 -114.25 2.375 C-81.94961752 -24.85236018 -33.29841783 -25.97526955 0 0 Z " fill="#010000" transform="translate(145,18)"/>
<path d="M0 0 C3.654206 1.86306959 5.73676094 4.60514141 8 8 C9.90588975 19.51558647 4.32675795 29.67637058 -0.8125 39.6015625 C-2.41749634 42.84323273 -3.71998654 46.17336302 -5.01953125 49.546875 C-6.00733015 52.01833997 -7.11444837 54.40592742 -8.25 56.8125 C-10.27353057 61.2466437 -10.27353057 61.2466437 -10 66 C7.88030015 88.49457116 47.64649032 93.15716829 73.765625 97.0078125 C78.73841195 97.75960391 83.47152328 98.76771681 88.3125 100.125 C88.96927734 100.30675781 89.62605469 100.48851562 90.30273438 100.67578125 C91.8703345 101.11059004 93.43548123 101.55423117 95 102 C94.01 103.98 94.01 103.98 93 106 C87.16031022 106.40742022 82.10489936 105.1678879 76.44140625 103.7890625 C70.3351728 102.38899535 64.13097448 101.59027859 57.93261719 100.70458984 C46.8819671 99.10094 36.53640269 96.69387131 26 93 C25.33758301 92.77441406 24.67516602 92.54882812 23.99267578 92.31640625 C16.34797883 89.69980222 9.02849046 86.70684947 1.875 82.9375 C0.96995728 82.46316528 0.96995728 82.46316528 0.04663086 81.97924805 C-6.63632424 78.327273 -13.50810127 73.47569618 -16 66 C-16.47227283 60.36010418 -15.21896465 56.44068554 -12.6875 51.5 C-12.06534626 50.24010621 -11.4442468 48.97969125 -10.82421875 47.71875 C-10.51726074 47.10209473 -10.21030273 46.48543945 -9.89404297 45.85009766 C-8.49045721 42.94557202 -7.25759451 39.96999032 -6 37 C-5.17130681 35.20618243 -4.33826163 33.41436618 -3.5 31.625 C1.30916648 21.24164587 1.30916648 21.24164587 2 10 C1.18547684 7.44148975 1.18547684 7.44148975 -1 6 C-7.2016788 5.1590944 -11.91763209 6.29682167 -17 10 C-23.91237956 17.06636822 -23.34580173 26.27076032 -24.0625 35.625 C-24.15337891 36.73746094 -24.24425781 37.84992188 -24.33789062 38.99609375 C-25.10035778 48.84510552 -25.3049164 58.58845353 -24.5 68.4375 C-24.15782119 73.33367616 -23.86090124 78.21762012 -23.75 83.125 C-23.72421875 84.13820313 -23.6984375 85.15140625 -23.671875 86.1953125 C-24.05283181 89.45158622 -25.143297 91.33221095 -27 94 C-28.32 93.34 -29.64 92.68 -31 92 C-31 70.22 -31 48.44 -31 26 C-32.98 26 -34.96 26 -37 26 C-36.25 21.25 -36.25 21.25 -34 19 C-30.875 19.375 -30.875 19.375 -28 20 C-27.9175 19.13375 -27.835 18.2675 -27.75 17.375 C-26.01354767 9.56096451 -20.38613438 5.26918376 -14 1 C-9.36387689 -0.54537437 -4.8365888 -0.62875654 0 0 Z " fill="#CC800E" transform="translate(66,42)"/>
<path d="M0 0 C2.97 0.33 5.94 0.66 9 1 C8.99476318 2.10287354 8.98952637 3.20574707 8.98413086 4.34204102 C8.96577324 8.50755982 8.95445784 12.67307519 8.94506836 16.83862305 C8.94009739 18.6276917 8.93331827 20.41675642 8.92456055 22.20581055 C8.87745128 32.09044307 8.97610547 41.88249587 9.7590332 51.74145508 C10.91509389 67.37462826 10.91509389 67.37462826 7 73 C5.68 72.34 4.36 71.68 3 71 C3 49.22 3 27.44 3 5 C1.35 5 -0.3 5 -2 5 C-1.01 4.34 -0.02 3.68 1 3 C0.67 2.01 0.34 1.02 0 0 Z " fill="#DC880C" transform="translate(32,63)"/>
<path d="M0 0 C0.66 0.33 1.32 0.66 2 1 C1.01 1.66 0.02 2.32 -1 3 C2.96 3.33 6.92 3.66 11 4 C11 4.99 11 5.98 11 7 C10.505 6.505 10.505 6.505 10 6 C3.71603642 5.44877512 -0.83509833 6.23668489 -6 10 C-12.15576154 16.29289484 -12.12982622 23.50524487 -12.5625 31.875 C-12.60568359 32.65875 -12.64886719 33.4425 -12.69335938 34.25 C-12.79853351 36.16650649 -12.89967925 38.08323333 -13 40 C-13.33 40 -13.66 40 -14 40 C-14.33 34.39 -14.66 28.78 -15 23 C-17.31 22.67 -19.62 22.34 -22 22 C-21.67 22.99 -21.34 23.98 -21 25 C-22.65 25.33 -24.3 25.66 -26 26 C-25.25 21.25 -25.25 21.25 -23 19 C-19.875 19.375 -19.875 19.375 -17 20 C-16.9175 19.13375 -16.835 18.2675 -16.75 17.375 C-15.01354767 9.56096451 -9.38613438 5.26918376 -3 1 C-2.01 0.67 -1.02 0.34 0 0 Z " fill="#C1790E" transform="translate(55,42)"/>
<path d="M0 0 C4.15993365 0.00729813 6.98231948 0.19776326 10.2890625 2.87890625 C14.09002211 6.86527852 15.10410542 8.83333213 14.9765625 14.25390625 C14.95851563 15.24777344 14.94046875 16.24164063 14.921875 17.265625 C14.89867188 18.02488281 14.87546875 18.78414062 14.8515625 19.56640625 C13.2015625 20.22640625 11.5515625 20.88640625 9.8515625 21.56640625 C10.1815625 17.60640625 10.5115625 13.64640625 10.8515625 9.56640625 C9.8615625 9.23640625 8.8715625 8.90640625 7.8515625 8.56640625 C7.5215625 7.57640625 7.1915625 6.58640625 6.8515625 5.56640625 C2.5615625 5.23640625 -1.7284375 4.90640625 -6.1484375 4.56640625 C-2.1484375 0.56640625 -2.1484375 0.56640625 0 0 Z " fill="#CF820D" transform="translate(59.1484375,41.43359375)"/>
<path d="M0 0 C0.33 0 0.66 0 1 0 C1.33 8.25 1.66 16.5 2 25 C2.99 25 3.98 25 5 25 C5.33 21.37 5.66 17.74 6 14 C6.33 14 6.66 14 7 14 C7.08150744 16.06183633 7.1394194 18.12461349 7.1875 20.1875 C7.22230469 21.33605469 7.25710937 22.48460938 7.29296875 23.66796875 C6.97622579 27.27039199 6.08533398 29.09366839 4 32 C2.68 31.34 1.36 30.68 0 30 C0 20.1 0 10.2 0 0 Z " fill="#BB770F" transform="translate(35,104)"/>
<path d="M0 0 C0.78503906 0.13277344 1.57007812 0.26554688 2.37890625 0.40234375 C7.91187987 1.33242643 13.44073841 2.24191887 19 3 C19 3.33 19 3.66 19 4 C16.36 4 13.72 4 11 4 C11 4.66 11 5.32 11 6 C12.65 6.33 14.3 6.66 16 7 C16 7.33 16 7.66 16 8 C10.5814234 8.22577402 6.22512279 7.46670113 1 6 C1.20625 5.38125 1.4125 4.7625 1.625 4.125 C1.74875 3.42375 1.8725 2.7225 2 2 C1.34 1.34 0.68 0.68 0 0 Z " fill="#C37B0F" transform="translate(104,133)"/>
<path d="M0 0 C2.69527234 0.43025448 4.24721939 1.37634441 6.12890625 3.33984375 C5.79890625 4.65984375 5.46890625 5.97984375 5.12890625 7.33984375 C4.13890625 6.67984375 3.14890625 6.01984375 2.12890625 5.33984375 C-1.0691604 4.87946735 -1.0691604 4.87946735 -4.55859375 4.71484375 C-5.73808594 4.64007813 -6.91757812 4.5653125 -8.1328125 4.48828125 C-9.03644531 4.43929687 -9.94007812 4.3903125 -10.87109375 4.33984375 C-7.26808207 0.20456898 -5.29088953 -0.21791143 0 0 Z " fill="#DB880F" transform="translate(63.87109375,41.66015625)"/>
<path d="M0 0 C2.475 0.99 2.475 0.99 5 2 C4.34 3.98 3.68 5.96 3 8 C2.34 7.34 1.68 6.68 1 6 C0.67 7.98 0.34 9.96 0 12 C-0.66 11.67 -1.32 11.34 -2 11 C-2.28571429 3.57142857 -2.28571429 3.57142857 0 0 Z " fill="#C07A0F" transform="translate(52,97)"/>
<path d="M0 0 C0.125 5.75 0.125 5.75 -1 8 C-1.99 8 -2.98 8 -4 8 C-4 8.66 -4 9.32 -4 10 C-4.66 10 -5.32 10 -6 10 C-3.90322581 0 -3.90322581 0 0 0 Z " fill="#DA870A" transform="translate(69,68)"/>
<path d="M0 0 C2.875 -0.125 2.875 -0.125 6 0 C6.66 0.66 7.32 1.32 8 2 C7.34 2 6.68 2 6 2 C6 2.66 6 3.32 6 4 C4.02 4 2.04 4 0 4 C0 2.68 0 1.36 0 0 Z " fill="#D9870D" transform="translate(79,126)"/>
<path d="M0 0 C1.65 0.33 3.3 0.66 5 1 C5 2.32 5 3.64 5 5 C4.01 5 3.02 5 2 5 C2 4.34 2 3.68 2 3 C1.01 3 0.02 3 -1 3 C-0.67 2.01 -0.34 1.02 0 0 Z " fill="#DE890C" transform="translate(101,133)"/>
<path d="M0 0 C1.32 0.66 2.64 1.32 4 2 C2.68 3.32 1.36 4.64 0 6 C-1.32 4.68 -2.64 3.36 -4 2 C-2.68 2 -1.36 2 0 2 C0 1.34 0 0.68 0 0 Z " fill="#C37C0F" transform="translate(63,116)"/>
</svg>
